{"title":"Restless.2011.BDRip.AC3.HORiZON-ArtSubs","uid":6896826,"size":1726521087,"categoryP":"video","categoryS":"movies","magnet":"?xt=urn:btih:e2c53771e2c7b84d0b7de560fc4754b9cc2cb60a&amp;dn=Restless.2011.BDRip.AC3.HORiZON-ArtSubs&amp;tr=udp%3A%2F%2Ftracker.openbittorrent.com%3A80&amp;tr=udp%3A%2F%2Fopen.demonii.com%3A1337&amp;tr=udp%3A%2F%2Ftracker.coppersurfer.tk%3A6969&amp;tr=udp%3A%2F%2Fexodus.desync.com%3A6969","seeders":4,"leechers":0,"uploader":"lletaif","files":3,"time":1324228744,"description":"Title: Restless (2011)\n\nDirector: Gus Van Sant\n\nWriter: Jason Lew\n\nStars: Mia Wasikowska, Henry Hopper and Ryo Kase\n\nPlot: The story of a terminally ill teenage girl who falls for a boy who likes to attend funerals and their encounters with the ghost of a Japanese kamikaze pilot from WWII.\n\nIMDB: http://www.imdb.com/title/tt1498569\n\nRip Spects\n\n\nGeneral\nComplete name                    : Restless.2011.BDRip.AC3.HORiZON-ArtSubs\nFormat                           : AVI\nFormat/Info                      : Audio Video Interleave\nFile size                        : 1.60 GiB\nDuration                         : 1h 31mn\nOverall bit rate                 : 2 523 Kbps\nWriting application              : FairUse Wizard - http://fairusewizard.com\nWriting library                  : The best and REALLY easy backup tool\n\nVideo\nID                               : 0\nFormat                           : MPEG-4 Visual\nFormat profile                   : Advanced Simple@L5\nFormat settings, BVOP            : 1\nFormat settings, QPel            : No\nFormat settings, GMC             : No warppoints\nFormat settings, Matrix          : Default (MPEG)\nMuxing mode                      : Packed bitstream\nCodec ID                         : XVID\nCodec ID/Hint                    : XviD\nDuration                         : 1h 31mn\nBit rate                         : 2 066 Kbps\nWidth                            : 688 pixels\nHeight                           : 368 pixels\nDisplay aspect ratio             : 1.870\nFrame rate                       : 23.976 fps\nColor space                      : YUV\nChroma subsampling               : 4:2:0\nBit depth                        : 8 bits\nScan type                        : Progressive\nCompression mode                 : Lossy\nBits/(Pixel*Frame)               : 0.340\nStream size                      : 1.31 GiB (82%)\nWriting library                  : XviD 1.2.0.dev47 (UTC 2006-11-01)\n\nAudio\nID                               : 1\nFormat                           : AC-3\nFormat/Info                      : Audio Coding 3\nMode extension                   : CM (complete main)\nCodec ID                         : 2000\nDuration                         : 1h 31mn\nBit rate mode                    : Constant\nBit rate                         : 448 Kbps\nChannel(s)                       : 6 channels\nChannel positions                : Front: L C R, Side: L R, LFE\nSampling rate                    : 48.0 KHz\nBit depth                        : 16 bits\nCompression mode                 : Lossy\nStream size                      : 292 MiB (18%)\nAlignment                        : Split accross interleaves\nInterleave, duration             : 42 ms (1.00 video frame)\nInterleave, preload duration     : 500 ms\n","torrent":{"xt":"urn:btih:e2c53771e2c7b84d0b7de560fc4754b9cc2cb60a","amp;dn":"Restless.2011.BDRip.AC3.HORiZON-ArtSubs","amp;tr":["udp%3A%2F%2Ftracker.openbittorrent.com%3A80","udp%3A%2F%2Fopen.demonii.com%3A1337","udp%3A%2F%2Ftracker.coppersurfer.tk%3A6969","udp%3A%2F%2Fexodus.desync.com%3A6969"],"infoHash":"e2c53771e2c7b84d0b7de560fc4754b9cc2cb60a","infoHashBuffer":{"type":"Buffer","data":[226,197,55,113,226,199,184,77,11,125,229,96,252,71,84,185,204,44,182,10]},"announce":[],"urlList":[]}}